<svg width="64" height="64" viewBox="0 0 64 64" fill="none" xmlns="http://www.w3.org/2000/svg">
  <defs>
    <linearGradient id="gradient" x1="0%" y1="0%" x2="100%" y2="100%">
      <stop offset="0%" style="stop-color:#1E40AF;stop-opacity:1" />
      <stop offset="50%" style="stop-color:#3B82F6;stop-opacity:1" />
      <stop offset="100%" style="stop-color:#7C3AED;stop-opacity:1" />
    </linearGradient>
    <linearGradient id="accent" x1="0%" y1="0%" x2="100%" y2="0%">
      <stop offset="0%" style="stop-color:#60A5FA;stop-opacity:1" />
      <stop offset="100%" style="stop-color:#A78BFA;stop-opacity:1" />
    </linearGradient>
    <filter id="glow">
      <feGaussianBlur stdDeviation="2" result="coloredBlur"/>
      <feMerge> 
        <feMergeNode in="coloredBlur"/>
        <feMergeNode in="SourceGraphic"/>
      </feMerge>
    </filter>
  </defs>
  
  <!-- Background Circle -->
  <circle cx="32" cy="32" r="30" fill="url(#gradient)" filter="url(#glow)"/>
  
  <!-- Rocket body - larger to fill more space -->
  <rect x="26" y="16" width="12" height="28" rx="3" fill="white"/>
  
  <!-- Rocket nose - larger -->
  <path d="M32 12 L38 16 L26 16 Z" fill="white"/>
  
  <!-- Rocket fins - larger -->
  <path d="M26 40 L20 48 L26 44 Z" fill="white"/>
  <path d="M38 44 L44 48 L38 40 Z" fill="white"/>
  
  <!-- Rocket window - larger -->
  <circle cx="32" cy="26" r="3" fill="url(#accent)"/>
  
  <!-- Exhaust flames - larger and more prominent -->
  <path d="M28 44 Q32 50, 36 44" stroke="url(#accent)" stroke-width="3" fill="none" stroke-linecap="round"/>
  <path d="M27 46 Q32 52, 37 46" stroke="url(#accent)" stroke-width="2.5" fill="none" stroke-linecap="round" opacity="0.8"/>
  <path d="M26 48 Q32 54, 38 48" stroke="url(#accent)" stroke-width="2" fill="none" stroke-linecap="round" opacity="0.6"/>
  
  <!-- Stars - more prominent -->
  <circle cx="18" cy="18" r="1.5" fill="rgba(255,255,255,0.7)"/>
  <circle cx="46" cy="16" r="1.2" fill="rgba(255,255,255,0.6)"/>
  <circle cx="16" cy="46" r="1.2" fill="rgba(255,255,255,0.5)"/>
  <circle cx="48" cy="48" r="1.5" fill="rgba(255,255,255,0.7)"/>
  <circle cx="24" cy="12" r="1" fill="rgba(255,255,255,0.4)"/>
  <circle cx="40" cy="12" r="1" fill="rgba(255,255,255,0.4)"/>
</svg>